<?xml version="1.0" encoding="utf-8"?>
<!-- Generator: Adobe Illustrator 24.3.0, SVG Export Plug-In . SVG Version: 6.00 Build 0)  -->
<svg version="1.1" id="图层_1" xmlns="http://www.w3.org/2000/svg" xmlns:xlink="http://www.w3.org/1999/xlink" x="0px" y="0px"
	 viewBox="0 0 48 48" style="enable-background:new 0 0 48 48;" xml:space="preserve">
<style type="text/css">
	.st0{fill:#040000;}
	.st1{fill:#221F20;}
	.st2{fill:#FFFFFF;}
	.st3{fill:#110F0F;}
	.st4{fill:#37A5D5;}
	.st5{fill:#764995;}
	.st6{fill:#B1275B;}
	.st7{fill:#9E1E2E;}
	.st8{fill:#1379B9;}
	.st9{fill:#684090;}
	.st10{fill:#8E2B6E;}
	.st11{fill:#711732;}
</style>
<g>
	<polygon class="st0" points="44.4,12.6 44.4,36 29.5,44.6 24.1,47.7 3.9,36 3.9,12.6 24.1,0.9 	"/>
	<polygon class="st1" points="44.4,12.6 44.4,36 39.5,38.8 34.1,41.9 29.5,44.6 24.1,47.7 18.8,44.6 14.1,41.9 8.8,38.8 3.9,36 
		3.9,12.6 8.8,9.8 10.5,8.8 24.1,0.9 35.2,7.4 39.5,9.8 	"/>
	<polygon class="st2" points="34.1,24.8 24.1,30.6 14.1,24.8 8.8,21.7 8.8,28.5 8.8,39.1 14.1,42.2 14.1,31.6 18.8,34.3 18.8,44.9 
		24.1,48 29.5,44.9 29.5,34.3 34.1,31.6 34.1,42.2 39.5,39.1 39.5,28.5 39.5,21.7 	"/>
	<polygon class="st3" points="39.5,9.8 35.2,7.4 24.1,0.9 10.5,8.8 8.8,9.8 4,12.5 24.1,24.1 44.2,12.5 	"/>
	<polygon class="st4" points="33.6,15.3 31,13.8 24.1,9.9 15.8,14.7 14.7,15.3 11.8,17 24.1,24.1 36.5,17 	"/>
	<polygon class="st5" points="31.4,17.4 29.4,16.2 24.1,13.2 17.7,16.9 16.9,17.4 14.6,18.7 24.1,24.1 33.6,18.7 	"/>
	<polygon class="st6" points="29.2,19.4 27.8,18.6 24.1,16.5 19.6,19.1 19,19.4 17.5,20.3 24.1,24.1 30.8,20.3 	"/>
	<polygon class="st7" points="26.9,21.6 26.1,21.1 24.1,20 21.7,21.4 21.4,21.6 20.5,22.1 24.1,24.1 27.7,22.1 	"/>
	<polygon class="st8" points="33.6,15.3 31,13.8 24.1,9.9 24.1,24.1 36.5,17 	"/>
	<polygon class="st9" points="31.4,17.4 29.4,16.2 24.1,13.2 24.1,24.1 33.6,18.7 	"/>
	<polygon class="st10" points="29.2,19.4 27.8,18.6 24.1,16.5 24.1,24.1 30.8,20.3 	"/>
	<polygon class="st11" points="26.9,21.6 26.1,21.1 24.1,20 24.1,24.1 27.7,22.1 	"/>
</g>
</svg>
